# xmcd
#
# Track frame offsets:
#	150
#	19985
#	33641
#	46036
#	59892
#	71933
#	91534
#	111152
#	125466
#	142379
#	161160
#	175399
#
# Disc length: 2531 seconds
# Revision: 0
# Processed by: cddbd v1.5.2PL0 Copyright (c) Steve Scherf et al.
# Submitted via: dBpowerAMP V12.0
#
DISCID=b609e10c
DTITLE=Cary Morin - Streamline
DYEAR=2013
DGENRE=Blues
TTITLE0=Here and Now
TTITLE1=Family Ties
TTITLE2=Tulsa
TTITLE3=Live a Little
TTITLE4=Between You and Me
TTITLE5=Tennessee
TTITLE6=Thunder
TTITLE7=To Love Somebody
TTITLE8=Tennessee Jed
TTITLE9=Elizabeth
TTITLE10=Wolfman's Brother
TTITLE11=Old Guitar
EXTD=
EXTT0=
EXTT1=
EXTT2=
EXTT3=
EXTT4=
EXTT5=
EXTT6=
EXTT7=
EXTT8=
EXTT9=
EXTT10=
EXTT11=
PLAYORDER=
